<mxfile host="app.diagrams.net" modified="2021-06-19T09:49:58.199Z" agent="5.0 (Windows NT 10.0; WOW64) AppleWebKit/537.36 (KHTML, like Gecko) Chrome/91.0.4472.106 Safari/537.36" etag="18K8epvx3rRfTLwNMY2U" version="14.8.0" type="github">
  <diagram id="C5RBs43oDa-KdzZeNtuy" name="Page-1">
    <mxGraphModel dx="1038" dy="547" grid="1" gridSize="10" guides="1" tooltips="1" connect="1" arrows="1" fold="1" page="1" pageScale="1" pageWidth="827" pageHeight="1169" math="0" shadow="0">
      <root>
        <mxCell id="WIyWlLk6GJQsqaUBKTNV-0" />
        <mxCell id="WIyWlLk6GJQsqaUBKTNV-1" parent="WIyWlLk6GJQsqaUBKTNV-0" />
        <mxCell id="NFFtm2RSYyVDFFd-k5kk-5" value="" style="edgeStyle=orthogonalEdgeStyle;rounded=0;orthogonalLoop=1;jettySize=auto;html=1;" edge="1" parent="WIyWlLk6GJQsqaUBKTNV-1" source="NFFtm2RSYyVDFFd-k5kk-0" target="NFFtm2RSYyVDFFd-k5kk-2">
          <mxGeometry relative="1" as="geometry" />
        </mxCell>
        <mxCell id="NFFtm2RSYyVDFFd-k5kk-0" value="Start Program" style="rounded=1;whiteSpace=wrap;html=1;" vertex="1" parent="WIyWlLk6GJQsqaUBKTNV-1">
          <mxGeometry x="341" y="30" width="146" height="40" as="geometry" />
        </mxCell>
        <mxCell id="NFFtm2RSYyVDFFd-k5kk-2" value="Get current time , Folder validity check" style="rounded=1;whiteSpace=wrap;html=1;" vertex="1" parent="WIyWlLk6GJQsqaUBKTNV-1">
          <mxGeometry x="290.5" y="120" width="247" height="40" as="geometry" />
        </mxCell>
        <mxCell id="NFFtm2RSYyVDFFd-k5kk-3" value="Walk in video directory and subfolder" style="rounded=1;whiteSpace=wrap;html=1;" vertex="1" parent="WIyWlLk6GJQsqaUBKTNV-1">
          <mxGeometry x="290" y="200" width="247" height="40" as="geometry" />
        </mxCell>
        <mxCell id="NFFtm2RSYyVDFFd-k5kk-9" value="" style="endArrow=classic;html=1;exitX=0.5;exitY=1;exitDx=0;exitDy=0;entryX=0.5;entryY=0;entryDx=0;entryDy=0;" edge="1" parent="WIyWlLk6GJQsqaUBKTNV-1" source="NFFtm2RSYyVDFFd-k5kk-2" target="NFFtm2RSYyVDFFd-k5kk-3">
          <mxGeometry width="50" height="50" relative="1" as="geometry">
            <mxPoint x="390" y="310" as="sourcePoint" />
            <mxPoint x="440" y="260" as="targetPoint" />
          </mxGeometry>
        </mxCell>
        <mxCell id="NFFtm2RSYyVDFFd-k5kk-10" value="Create Time &amp;gt; 1 month" style="rhombus;whiteSpace=wrap;html=1;" vertex="1" parent="WIyWlLk6GJQsqaUBKTNV-1">
          <mxGeometry x="317" y="280" width="194" height="80" as="geometry" />
        </mxCell>
        <mxCell id="NFFtm2RSYyVDFFd-k5kk-11" value="" style="endArrow=classic;html=1;exitX=0.5;exitY=1;exitDx=0;exitDy=0;entryX=0.5;entryY=0;entryDx=0;entryDy=0;" edge="1" parent="WIyWlLk6GJQsqaUBKTNV-1" source="NFFtm2RSYyVDFFd-k5kk-3" target="NFFtm2RSYyVDFFd-k5kk-10">
          <mxGeometry width="50" height="50" relative="1" as="geometry">
            <mxPoint x="390" y="310" as="sourcePoint" />
            <mxPoint x="440" y="260" as="targetPoint" />
          </mxGeometry>
        </mxCell>
        <mxCell id="NFFtm2RSYyVDFFd-k5kk-13" value="Delete" style="rounded=0;whiteSpace=wrap;html=1;" vertex="1" parent="WIyWlLk6GJQsqaUBKTNV-1">
          <mxGeometry x="580" y="300" width="120" height="40" as="geometry" />
        </mxCell>
        <mxCell id="NFFtm2RSYyVDFFd-k5kk-14" value="" style="endArrow=classic;html=1;entryX=0;entryY=0.5;entryDx=0;entryDy=0;" edge="1" parent="WIyWlLk6GJQsqaUBKTNV-1" target="NFFtm2RSYyVDFFd-k5kk-13">
          <mxGeometry width="50" height="50" relative="1" as="geometry">
            <mxPoint x="510" y="320" as="sourcePoint" />
            <mxPoint x="440" y="260" as="targetPoint" />
          </mxGeometry>
        </mxCell>
        <mxCell id="NFFtm2RSYyVDFFd-k5kk-15" value="" style="endArrow=classic;html=1;entryX=1;entryY=0.5;entryDx=0;entryDy=0;exitX=0.5;exitY=0;exitDx=0;exitDy=0;" edge="1" parent="WIyWlLk6GJQsqaUBKTNV-1" source="NFFtm2RSYyVDFFd-k5kk-13" target="NFFtm2RSYyVDFFd-k5kk-3">
          <mxGeometry width="50" height="50" relative="1" as="geometry">
            <mxPoint x="390" y="310" as="sourcePoint" />
            <mxPoint x="440" y="260" as="targetPoint" />
            <Array as="points">
              <mxPoint x="640" y="220" />
            </Array>
          </mxGeometry>
        </mxCell>
        <mxCell id="NFFtm2RSYyVDFFd-k5kk-16" value="Yes" style="text;html=1;strokeColor=none;fillColor=none;align=center;verticalAlign=middle;whiteSpace=wrap;rounded=0;" vertex="1" parent="WIyWlLk6GJQsqaUBKTNV-1">
          <mxGeometry x="520" y="290" width="40" height="20" as="geometry" />
        </mxCell>
        <mxCell id="NFFtm2RSYyVDFFd-k5kk-17" value="" style="endArrow=classic;html=1;exitX=0;exitY=0.5;exitDx=0;exitDy=0;entryX=0;entryY=0.5;entryDx=0;entryDy=0;" edge="1" parent="WIyWlLk6GJQsqaUBKTNV-1" source="NFFtm2RSYyVDFFd-k5kk-10" target="NFFtm2RSYyVDFFd-k5kk-3">
          <mxGeometry width="50" height="50" relative="1" as="geometry">
            <mxPoint x="390" y="310" as="sourcePoint" />
            <mxPoint x="440" y="260" as="targetPoint" />
            <Array as="points">
              <mxPoint x="240" y="320" />
              <mxPoint x="240" y="220" />
            </Array>
          </mxGeometry>
        </mxCell>
        <mxCell id="NFFtm2RSYyVDFFd-k5kk-18" value="No" style="text;html=1;strokeColor=none;fillColor=none;align=center;verticalAlign=middle;whiteSpace=wrap;rounded=0;" vertex="1" parent="WIyWlLk6GJQsqaUBKTNV-1">
          <mxGeometry x="270" y="290" width="40" height="20" as="geometry" />
        </mxCell>
        <mxCell id="NFFtm2RSYyVDFFd-k5kk-19" value="" style="endArrow=classic;html=1;exitX=0.5;exitY=1;exitDx=0;exitDy=0;entryX=0.5;entryY=0;entryDx=0;entryDy=0;" edge="1" parent="WIyWlLk6GJQsqaUBKTNV-1" source="NFFtm2RSYyVDFFd-k5kk-10" target="NFFtm2RSYyVDFFd-k5kk-22">
          <mxGeometry width="50" height="50" relative="1" as="geometry">
            <mxPoint x="390" y="310" as="sourcePoint" />
            <mxPoint x="413" y="430" as="targetPoint" />
          </mxGeometry>
        </mxCell>
        <mxCell id="NFFtm2RSYyVDFFd-k5kk-20" value="Exhaust all Folder" style="text;html=1;strokeColor=none;fillColor=none;align=center;verticalAlign=middle;whiteSpace=wrap;rounded=0;" vertex="1" parent="WIyWlLk6GJQsqaUBKTNV-1">
          <mxGeometry x="430" y="370" width="130" height="20" as="geometry" />
        </mxCell>
        <mxCell id="NFFtm2RSYyVDFFd-k5kk-22" value="Open Camera" style="rounded=0;whiteSpace=wrap;html=1;" vertex="1" parent="WIyWlLk6GJQsqaUBKTNV-1">
          <mxGeometry x="360" y="410" width="110" height="30" as="geometry" />
        </mxCell>
        <mxCell id="NFFtm2RSYyVDFFd-k5kk-25" value="Get QR code for Staff ID" style="shape=parallelogram;perimeter=parallelogramPerimeter;whiteSpace=wrap;html=1;fixedSize=1;" vertex="1" parent="WIyWlLk6GJQsqaUBKTNV-1">
          <mxGeometry x="304.5" y="470" width="221" height="30" as="geometry" />
        </mxCell>
        <mxCell id="NFFtm2RSYyVDFFd-k5kk-26" value="Get QR code for order number" style="shape=parallelogram;perimeter=parallelogramPerimeter;whiteSpace=wrap;html=1;fixedSize=1;" vertex="1" parent="WIyWlLk6GJQsqaUBKTNV-1">
          <mxGeometry x="298.5" y="620" width="233" height="40" as="geometry" />
        </mxCell>
        <mxCell id="NFFtm2RSYyVDFFd-k5kk-27" value="" style="endArrow=classic;html=1;exitX=0.5;exitY=1;exitDx=0;exitDy=0;entryX=0.5;entryY=0;entryDx=0;entryDy=0;" edge="1" parent="WIyWlLk6GJQsqaUBKTNV-1" source="NFFtm2RSYyVDFFd-k5kk-22" target="NFFtm2RSYyVDFFd-k5kk-25">
          <mxGeometry width="50" height="50" relative="1" as="geometry">
            <mxPoint x="390" y="560" as="sourcePoint" />
            <mxPoint x="414" y="530" as="targetPoint" />
          </mxGeometry>
        </mxCell>
        <mxCell id="NFFtm2RSYyVDFFd-k5kk-28" value="No Staff QR&amp;nbsp; &amp;gt; 5 min" style="rhombus;whiteSpace=wrap;html=1;" vertex="1" parent="WIyWlLk6GJQsqaUBKTNV-1">
          <mxGeometry x="322" y="530" width="186" height="50" as="geometry" />
        </mxCell>
        <mxCell id="NFFtm2RSYyVDFFd-k5kk-29" value="Exit" style="rounded=1;whiteSpace=wrap;html=1;" vertex="1" parent="WIyWlLk6GJQsqaUBKTNV-1">
          <mxGeometry x="760" y="535" width="146" height="40" as="geometry" />
        </mxCell>
        <mxCell id="NFFtm2RSYyVDFFd-k5kk-30" value="" style="endArrow=classic;html=1;entryX=0.5;entryY=0;entryDx=0;entryDy=0;exitX=0.5;exitY=1;exitDx=0;exitDy=0;" edge="1" parent="WIyWlLk6GJQsqaUBKTNV-1" source="NFFtm2RSYyVDFFd-k5kk-25" target="NFFtm2RSYyVDFFd-k5kk-28">
          <mxGeometry width="50" height="50" relative="1" as="geometry">
            <mxPoint x="440" y="590" as="sourcePoint" />
            <mxPoint x="440" y="500" as="targetPoint" />
          </mxGeometry>
        </mxCell>
        <mxCell id="NFFtm2RSYyVDFFd-k5kk-31" value="" style="endArrow=classic;html=1;exitX=1;exitY=0.5;exitDx=0;exitDy=0;entryX=0;entryY=0.5;entryDx=0;entryDy=0;" edge="1" parent="WIyWlLk6GJQsqaUBKTNV-1" source="NFFtm2RSYyVDFFd-k5kk-28" target="NFFtm2RSYyVDFFd-k5kk-61">
          <mxGeometry width="50" height="50" relative="1" as="geometry">
            <mxPoint x="390" y="550" as="sourcePoint" />
            <mxPoint x="440" y="500" as="targetPoint" />
          </mxGeometry>
        </mxCell>
        <mxCell id="NFFtm2RSYyVDFFd-k5kk-33" value="Yes" style="text;html=1;strokeColor=none;fillColor=none;align=center;verticalAlign=middle;whiteSpace=wrap;rounded=0;" vertex="1" parent="WIyWlLk6GJQsqaUBKTNV-1">
          <mxGeometry x="520" y="565" width="40" height="20" as="geometry" />
        </mxCell>
        <mxCell id="NFFtm2RSYyVDFFd-k5kk-34" value="No" style="text;html=1;strokeColor=none;fillColor=none;align=center;verticalAlign=middle;whiteSpace=wrap;rounded=0;" vertex="1" parent="WIyWlLk6GJQsqaUBKTNV-1">
          <mxGeometry x="440" y="590" width="40" height="20" as="geometry" />
        </mxCell>
        <mxCell id="NFFtm2RSYyVDFFd-k5kk-35" value="" style="endArrow=classic;html=1;exitX=0.5;exitY=1;exitDx=0;exitDy=0;" edge="1" parent="WIyWlLk6GJQsqaUBKTNV-1" source="NFFtm2RSYyVDFFd-k5kk-28" target="NFFtm2RSYyVDFFd-k5kk-26">
          <mxGeometry width="50" height="50" relative="1" as="geometry">
            <mxPoint x="390" y="550" as="sourcePoint" />
            <mxPoint x="440" y="500" as="targetPoint" />
          </mxGeometry>
        </mxCell>
        <mxCell id="NFFtm2RSYyVDFFd-k5kk-48" style="edgeStyle=orthogonalEdgeStyle;rounded=0;orthogonalLoop=1;jettySize=auto;html=1;exitX=0.5;exitY=1;exitDx=0;exitDy=0;entryX=0.5;entryY=0;entryDx=0;entryDy=0;" edge="1" parent="WIyWlLk6GJQsqaUBKTNV-1" source="NFFtm2RSYyVDFFd-k5kk-38" target="NFFtm2RSYyVDFFd-k5kk-41">
          <mxGeometry relative="1" as="geometry" />
        </mxCell>
        <mxCell id="NFFtm2RSYyVDFFd-k5kk-38" value="Recoding&amp;nbsp; , Put logo , Text on video" style="rounded=0;whiteSpace=wrap;html=1;" vertex="1" parent="WIyWlLk6GJQsqaUBKTNV-1">
          <mxGeometry x="297.5" y="690" width="235" height="30" as="geometry" />
        </mxCell>
        <mxCell id="NFFtm2RSYyVDFFd-k5kk-39" value="" style="endArrow=classic;html=1;exitX=0.5;exitY=1;exitDx=0;exitDy=0;entryX=0.5;entryY=0;entryDx=0;entryDy=0;" edge="1" parent="WIyWlLk6GJQsqaUBKTNV-1" source="NFFtm2RSYyVDFFd-k5kk-26" target="NFFtm2RSYyVDFFd-k5kk-38">
          <mxGeometry width="50" height="50" relative="1" as="geometry">
            <mxPoint x="390" y="610" as="sourcePoint" />
            <mxPoint x="440" y="560" as="targetPoint" />
          </mxGeometry>
        </mxCell>
        <mxCell id="NFFtm2RSYyVDFFd-k5kk-41" value="Get the same QR order number code&amp;nbsp;&lt;br&gt;when finish process" style="shape=parallelogram;perimeter=parallelogramPerimeter;whiteSpace=wrap;html=1;fixedSize=1;" vertex="1" parent="WIyWlLk6GJQsqaUBKTNV-1">
          <mxGeometry x="280" y="750" width="270" height="40" as="geometry" />
        </mxCell>
        <mxCell id="NFFtm2RSYyVDFFd-k5kk-49" value="Video length &amp;gt; 3 min" style="rhombus;whiteSpace=wrap;html=1;" vertex="1" parent="WIyWlLk6GJQsqaUBKTNV-1">
          <mxGeometry x="310" y="830" width="210" height="50" as="geometry" />
        </mxCell>
        <mxCell id="NFFtm2RSYyVDFFd-k5kk-50" value="" style="endArrow=classic;html=1;exitX=1;exitY=0.5;exitDx=0;exitDy=0;entryX=0;entryY=0.5;entryDx=0;entryDy=0;" edge="1" parent="WIyWlLk6GJQsqaUBKTNV-1" source="NFFtm2RSYyVDFFd-k5kk-49" target="NFFtm2RSYyVDFFd-k5kk-51">
          <mxGeometry width="50" height="50" relative="1" as="geometry">
            <mxPoint x="390" y="800" as="sourcePoint" />
            <mxPoint x="590" y="855" as="targetPoint" />
          </mxGeometry>
        </mxCell>
        <mxCell id="NFFtm2RSYyVDFFd-k5kk-51" value="Cut / time lapse to 3 min" style="rounded=0;whiteSpace=wrap;html=1;" vertex="1" parent="WIyWlLk6GJQsqaUBKTNV-1">
          <mxGeometry x="580" y="836.25" width="180" height="37.5" as="geometry" />
        </mxCell>
        <mxCell id="NFFtm2RSYyVDFFd-k5kk-52" value="" style="endArrow=classic;html=1;entryX=0.5;entryY=0;entryDx=0;entryDy=0;exitX=0.5;exitY=1;exitDx=0;exitDy=0;" edge="1" parent="WIyWlLk6GJQsqaUBKTNV-1" source="NFFtm2RSYyVDFFd-k5kk-41" target="NFFtm2RSYyVDFFd-k5kk-49">
          <mxGeometry width="50" height="50" relative="1" as="geometry">
            <mxPoint x="420" y="800" as="sourcePoint" />
            <mxPoint x="440" y="740" as="targetPoint" />
          </mxGeometry>
        </mxCell>
        <mxCell id="NFFtm2RSYyVDFFd-k5kk-53" value="Yes" style="text;html=1;strokeColor=none;fillColor=none;align=center;verticalAlign=middle;whiteSpace=wrap;rounded=0;" vertex="1" parent="WIyWlLk6GJQsqaUBKTNV-1">
          <mxGeometry x="511" y="830" width="40" height="20" as="geometry" />
        </mxCell>
        <mxCell id="NFFtm2RSYyVDFFd-k5kk-54" value="" style="endArrow=classic;html=1;exitX=0.5;exitY=1;exitDx=0;exitDy=0;entryX=0.5;entryY=0;entryDx=0;entryDy=0;" edge="1" parent="WIyWlLk6GJQsqaUBKTNV-1" source="NFFtm2RSYyVDFFd-k5kk-49" target="NFFtm2RSYyVDFFd-k5kk-57">
          <mxGeometry width="50" height="50" relative="1" as="geometry">
            <mxPoint x="390" y="690" as="sourcePoint" />
            <mxPoint x="415" y="910" as="targetPoint" />
          </mxGeometry>
        </mxCell>
        <mxCell id="NFFtm2RSYyVDFFd-k5kk-55" value="No" style="text;html=1;strokeColor=none;fillColor=none;align=center;verticalAlign=middle;whiteSpace=wrap;rounded=0;" vertex="1" parent="WIyWlLk6GJQsqaUBKTNV-1">
          <mxGeometry x="430" y="880" width="40" height="20" as="geometry" />
        </mxCell>
        <mxCell id="NFFtm2RSYyVDFFd-k5kk-57" value="" style="ellipse;whiteSpace=wrap;html=1;aspect=fixed;" vertex="1" parent="WIyWlLk6GJQsqaUBKTNV-1">
          <mxGeometry x="405" y="910" width="20" height="20" as="geometry" />
        </mxCell>
        <mxCell id="NFFtm2RSYyVDFFd-k5kk-58" value="" style="endArrow=classic;html=1;exitX=0.5;exitY=1;exitDx=0;exitDy=0;entryX=1;entryY=0.5;entryDx=0;entryDy=0;" edge="1" parent="WIyWlLk6GJQsqaUBKTNV-1" source="NFFtm2RSYyVDFFd-k5kk-51" target="NFFtm2RSYyVDFFd-k5kk-57">
          <mxGeometry width="50" height="50" relative="1" as="geometry">
            <mxPoint x="390" y="790" as="sourcePoint" />
            <mxPoint x="440" y="740" as="targetPoint" />
            <Array as="points">
              <mxPoint x="670" y="920" />
            </Array>
          </mxGeometry>
        </mxCell>
        <mxCell id="NFFtm2RSYyVDFFd-k5kk-59" value="Store video in the right path" style="rounded=0;whiteSpace=wrap;html=1;" vertex="1" parent="WIyWlLk6GJQsqaUBKTNV-1">
          <mxGeometry x="335" y="960" width="160" height="30" as="geometry" />
        </mxCell>
        <mxCell id="NFFtm2RSYyVDFFd-k5kk-60" value="" style="endArrow=classic;html=1;exitX=0.5;exitY=1;exitDx=0;exitDy=0;entryX=0.5;entryY=0;entryDx=0;entryDy=0;" edge="1" parent="WIyWlLk6GJQsqaUBKTNV-1" source="NFFtm2RSYyVDFFd-k5kk-57" target="NFFtm2RSYyVDFFd-k5kk-59">
          <mxGeometry width="50" height="50" relative="1" as="geometry">
            <mxPoint x="390" y="1090" as="sourcePoint" />
            <mxPoint x="440" y="1040" as="targetPoint" />
          </mxGeometry>
        </mxCell>
        <mxCell id="NFFtm2RSYyVDFFd-k5kk-61" value="Stop Camera" style="rounded=0;whiteSpace=wrap;html=1;" vertex="1" parent="WIyWlLk6GJQsqaUBKTNV-1">
          <mxGeometry x="590" y="532.5" width="120" height="45" as="geometry" />
        </mxCell>
        <mxCell id="NFFtm2RSYyVDFFd-k5kk-62" value="" style="endArrow=classic;html=1;exitX=1;exitY=0.5;exitDx=0;exitDy=0;entryX=0;entryY=0.5;entryDx=0;entryDy=0;" edge="1" parent="WIyWlLk6GJQsqaUBKTNV-1" source="NFFtm2RSYyVDFFd-k5kk-61" target="NFFtm2RSYyVDFFd-k5kk-29">
          <mxGeometry width="50" height="50" relative="1" as="geometry">
            <mxPoint x="390" y="490" as="sourcePoint" />
            <mxPoint x="440" y="440" as="targetPoint" />
          </mxGeometry>
        </mxCell>
        <mxCell id="NFFtm2RSYyVDFFd-k5kk-63" value="Create information of the video file" style="rounded=0;whiteSpace=wrap;html=1;" vertex="1" parent="WIyWlLk6GJQsqaUBKTNV-1">
          <mxGeometry x="305" y="1020" width="220" height="30" as="geometry" />
        </mxCell>
        <mxCell id="NFFtm2RSYyVDFFd-k5kk-64" value="" style="endArrow=classic;html=1;exitX=0.5;exitY=1;exitDx=0;exitDy=0;entryX=0.5;entryY=0;entryDx=0;entryDy=0;" edge="1" parent="WIyWlLk6GJQsqaUBKTNV-1" source="NFFtm2RSYyVDFFd-k5kk-59" target="NFFtm2RSYyVDFFd-k5kk-63">
          <mxGeometry width="50" height="50" relative="1" as="geometry">
            <mxPoint x="390" y="890" as="sourcePoint" />
            <mxPoint x="440" y="840" as="targetPoint" />
          </mxGeometry>
        </mxCell>
        <mxCell id="NFFtm2RSYyVDFFd-k5kk-65" value="Combine video data , information in JSON format" style="rounded=0;whiteSpace=wrap;html=1;" vertex="1" parent="WIyWlLk6GJQsqaUBKTNV-1">
          <mxGeometry x="295" y="1090" width="240" height="40" as="geometry" />
        </mxCell>
        <mxCell id="NFFtm2RSYyVDFFd-k5kk-66" value="" style="endArrow=classic;html=1;exitX=0.5;exitY=1;exitDx=0;exitDy=0;entryX=0.5;entryY=0;entryDx=0;entryDy=0;" edge="1" parent="WIyWlLk6GJQsqaUBKTNV-1" source="NFFtm2RSYyVDFFd-k5kk-63" target="NFFtm2RSYyVDFFd-k5kk-65">
          <mxGeometry width="50" height="50" relative="1" as="geometry">
            <mxPoint x="390" y="1080" as="sourcePoint" />
            <mxPoint x="440" y="1030" as="targetPoint" />
          </mxGeometry>
        </mxCell>
        <mxCell id="NFFtm2RSYyVDFFd-k5kk-68" value="Send to JSON data to server" style="rounded=0;whiteSpace=wrap;html=1;" vertex="1" parent="WIyWlLk6GJQsqaUBKTNV-1">
          <mxGeometry x="320" y="1160" width="190" height="31" as="geometry" />
        </mxCell>
        <mxCell id="NFFtm2RSYyVDFFd-k5kk-69" value="" style="endArrow=classic;html=1;exitX=0.5;exitY=1;exitDx=0;exitDy=0;" edge="1" parent="WIyWlLk6GJQsqaUBKTNV-1" source="NFFtm2RSYyVDFFd-k5kk-65" target="NFFtm2RSYyVDFFd-k5kk-68">
          <mxGeometry width="50" height="50" relative="1" as="geometry">
            <mxPoint x="390" y="1080" as="sourcePoint" />
            <mxPoint x="440" y="1030" as="targetPoint" />
          </mxGeometry>
        </mxCell>
        <mxCell id="NFFtm2RSYyVDFFd-k5kk-70" value="Get QR code" style="shape=parallelogram;perimeter=parallelogramPerimeter;whiteSpace=wrap;html=1;fixedSize=1;" vertex="1" parent="WIyWlLk6GJQsqaUBKTNV-1">
          <mxGeometry x="337.75" y="1230" width="154.5" height="30" as="geometry" />
        </mxCell>
        <mxCell id="NFFtm2RSYyVDFFd-k5kk-71" value="" style="ellipse;whiteSpace=wrap;html=1;aspect=fixed;" vertex="1" parent="WIyWlLk6GJQsqaUBKTNV-1">
          <mxGeometry x="404.75" y="1300" width="20" height="20" as="geometry" />
        </mxCell>
        <mxCell id="NFFtm2RSYyVDFFd-k5kk-72" value="" style="endArrow=classic;html=1;entryX=0.5;entryY=0;entryDx=0;entryDy=0;exitX=0.5;exitY=1;exitDx=0;exitDy=0;" edge="1" parent="WIyWlLk6GJQsqaUBKTNV-1" source="NFFtm2RSYyVDFFd-k5kk-70" target="NFFtm2RSYyVDFFd-k5kk-71">
          <mxGeometry width="50" height="50" relative="1" as="geometry">
            <mxPoint x="440" y="1300" as="sourcePoint" />
            <mxPoint x="440" y="1220" as="targetPoint" />
            <Array as="points" />
          </mxGeometry>
        </mxCell>
        <mxCell id="NFFtm2RSYyVDFFd-k5kk-77" value="" style="endArrow=classic;html=1;exitX=0.5;exitY=1;exitDx=0;exitDy=0;entryX=0.5;entryY=0;entryDx=0;entryDy=0;" edge="1" parent="WIyWlLk6GJQsqaUBKTNV-1" source="NFFtm2RSYyVDFFd-k5kk-68" target="NFFtm2RSYyVDFFd-k5kk-70">
          <mxGeometry width="50" height="50" relative="1" as="geometry">
            <mxPoint x="390" y="1270" as="sourcePoint" />
            <mxPoint x="440" y="1220" as="targetPoint" />
          </mxGeometry>
        </mxCell>
        <mxCell id="NFFtm2RSYyVDFFd-k5kk-80" value="" style="endArrow=classic;html=1;exitX=0.5;exitY=1;exitDx=0;exitDy=0;entryX=0.5;entryY=0;entryDx=0;entryDy=0;" edge="1" parent="WIyWlLk6GJQsqaUBKTNV-1" source="NFFtm2RSYyVDFFd-k5kk-71" target="NFFtm2RSYyVDFFd-k5kk-83">
          <mxGeometry width="50" height="50" relative="1" as="geometry">
            <mxPoint x="390" y="1270" as="sourcePoint" />
            <mxPoint x="330" y="1360" as="targetPoint" />
            <Array as="points" />
          </mxGeometry>
        </mxCell>
        <mxCell id="NFFtm2RSYyVDFFd-k5kk-81" value="" style="endArrow=classic;html=1;exitX=1;exitY=0.5;exitDx=0;exitDy=0;entryX=1;entryY=0.5;entryDx=0;entryDy=0;" edge="1" parent="WIyWlLk6GJQsqaUBKTNV-1" source="NFFtm2RSYyVDFFd-k5kk-71" target="NFFtm2RSYyVDFFd-k5kk-38">
          <mxGeometry width="50" height="50" relative="1" as="geometry">
            <mxPoint x="390" y="1370" as="sourcePoint" />
            <mxPoint x="610" y="710" as="targetPoint" />
            <Array as="points">
              <mxPoint x="800" y="1310" />
              <mxPoint x="800" y="705" />
            </Array>
          </mxGeometry>
        </mxCell>
        <mxCell id="NFFtm2RSYyVDFFd-k5kk-82" value="&lt;font color=&quot;#ff3333&quot;&gt;Order number : next packing&amp;nbsp; , Same staff&lt;/font&gt;" style="text;html=1;strokeColor=none;fillColor=none;align=center;verticalAlign=middle;whiteSpace=wrap;rounded=0;" vertex="1" parent="WIyWlLk6GJQsqaUBKTNV-1">
          <mxGeometry x="550" y="1280" width="180" height="20" as="geometry" />
        </mxCell>
        <mxCell id="NFFtm2RSYyVDFFd-k5kk-83" value="Is Same staff ?" style="rhombus;whiteSpace=wrap;html=1;" vertex="1" parent="WIyWlLk6GJQsqaUBKTNV-1">
          <mxGeometry x="324" y="1360" width="180" height="60" as="geometry" />
        </mxCell>
        <mxCell id="NFFtm2RSYyVDFFd-k5kk-84" value="&lt;font color=&quot;#ff3333&quot;&gt;Staff ID&lt;/font&gt;" style="text;html=1;strokeColor=none;fillColor=none;align=center;verticalAlign=middle;whiteSpace=wrap;rounded=0;" vertex="1" parent="WIyWlLk6GJQsqaUBKTNV-1">
          <mxGeometry x="298.5" y="1330" width="140" height="20" as="geometry" />
        </mxCell>
        <mxCell id="NFFtm2RSYyVDFFd-k5kk-90" value="" style="endArrow=classic;html=1;exitX=0;exitY=0.5;exitDx=0;exitDy=0;entryX=0;entryY=0.5;entryDx=0;entryDy=0;fillColor=#d5e8d4;strokeColor=#82b366;" edge="1" parent="WIyWlLk6GJQsqaUBKTNV-1" source="NFFtm2RSYyVDFFd-k5kk-83" target="NFFtm2RSYyVDFFd-k5kk-25">
          <mxGeometry width="50" height="50" relative="1" as="geometry">
            <mxPoint x="390" y="1290" as="sourcePoint" />
            <mxPoint x="180" y="1100" as="targetPoint" />
            <Array as="points">
              <mxPoint x="120" y="1390" />
              <mxPoint x="120" y="485" />
            </Array>
          </mxGeometry>
        </mxCell>
        <mxCell id="NFFtm2RSYyVDFFd-k5kk-91" value="&lt;font color=&quot;#006600&quot;&gt;Yes : logging off&lt;/font&gt;" style="text;html=1;strokeColor=none;fillColor=none;align=center;verticalAlign=middle;whiteSpace=wrap;rounded=0;" vertex="1" parent="WIyWlLk6GJQsqaUBKTNV-1">
          <mxGeometry x="130" y="1370" width="110" height="20" as="geometry" />
        </mxCell>
        <mxCell id="NFFtm2RSYyVDFFd-k5kk-93" value="" style="endArrow=classic;html=1;exitX=0.5;exitY=1;exitDx=0;exitDy=0;entryX=0;entryY=0.5;entryDx=0;entryDy=0;fillColor=#f8cecc;strokeColor=#B80012;" edge="1" parent="WIyWlLk6GJQsqaUBKTNV-1" source="NFFtm2RSYyVDFFd-k5kk-83" target="NFFtm2RSYyVDFFd-k5kk-26">
          <mxGeometry width="50" height="50" relative="1" as="geometry">
            <mxPoint x="390" y="1250" as="sourcePoint" />
            <mxPoint x="440" y="1200" as="targetPoint" />
            <Array as="points">
              <mxPoint x="80" y="1420" />
              <mxPoint x="80" y="640" />
            </Array>
          </mxGeometry>
        </mxCell>
        <mxCell id="NFFtm2RSYyVDFFd-k5kk-94" value="&lt;font color=&quot;#ff3333&quot;&gt;No : New staff&amp;nbsp;&lt;/font&gt;" style="text;html=1;strokeColor=none;fillColor=none;align=center;verticalAlign=middle;whiteSpace=wrap;rounded=0;" vertex="1" parent="WIyWlLk6GJQsqaUBKTNV-1">
          <mxGeometry x="130" y="1430" width="110" height="20" as="geometry" />
        </mxCell>
      </root>
    </mxGraphModel>
  </diagram>
</mxfile>
